<svg width="38" height="25" viewBox="0 0 388 250" fill="none"
    xmlns="http://www.w3.org/2000/svg">
    <path d="M241.817 56.7152C248.666 46.4888 260.782 45.7248 271.905 45.72L286.361 45.9528C306.738 48.5304 320.898 60.8224 334.279 75.028L346.126 87.3224C355.63 97.032 365.49 106.498 373.934 117.171C386.525 133.088 387.766 144.697 387.762 163.736C387.759 177.237 389.02 189.982 377.036 199.257C371.054 203.887 363.874 204.686 356.553 204.585C356.094 204.578 355.738 204.358 355.666 204.829C346.082 268.61 271.799 259.666 265.948 205.581L210.146 205.273L202.822 205.278L201.25 204.906C201.851 204.411 202.892 204.204 203.627 203.952L208.844 202.151C209.206 201.668 212.01 200.748 212.742 200.396C228.863 192.654 239.64 175.524 241.61 158.001C242.228 152.513 241.86 146.675 241.861 141.139L241.851 117.11L241.817 56.7152ZM299.234 74.8264C286.343 76.7344 288.022 86.7256 288.013 96.5784C288.001 109.319 287.092 120.666 302.37 125.348C305.511 126.31 310.052 125.783 313.369 125.791L332.234 125.913C338.722 125.411 344.927 119.758 343.042 112.75L342.948 112.388C341.27 106.391 326.284 93.9672 321.568 89.3984C315.038 83.0712 309.422 74.3112 299.234 74.8264Z" fill="#00537A" />
    <path d="M35.4088 38.892L43.66 38.804C46.6328 26.612 54.9048 15.5824 65.6152 9.0592C80.0448 0.272001 96.004 0.995992 112.246 0.987192L177.518 0.942392C186.658 0.925592 196.379 0.121592 205.318 2.33199C227.099 7.71999 241.154 24.8704 241.252 47.1928C241.266 50.2112 240.974 53.7984 241.82 56.7152L241.859 117.11L241.861 141.139C241.86 146.675 242.228 152.513 241.61 158.001C239.64 175.524 228.863 192.654 212.742 200.396C212.01 200.748 209.206 201.668 208.844 202.151L203.627 203.952C202.892 204.204 201.851 204.411 201.25 204.906L202.822 205.254L172.234 204.705C172.254 207.746 172.25 210.988 171.643 214.213C165.537 246.676 123.581 261.628 99.52 237.134C93.4976 231.004 86.7896 219.926 86.4008 210.933L85.9688 207.826L85.8088 206.826C85.5088 205.206 83.3928 206.03 82.1248 205.981C73.204 205.634 63.5728 202.297 56.2304 197.375C38.5088 185.495 34.9872 165.915 35.0048 145.992L35.0216 118.266C35.0336 114.966 34.9856 111.44 35.624 108.198L36.0328 105.594C36.1456 104.751 36.3336 104.372 36.9288 103.767L37.1 103.599C35.2184 103.296 33.2104 103.516 31.2888 103.302L30.9736 103.265L22.8752 103.2C21.2416 103.183 19.4056 103.266 17.8211 102.877L17.5 102.791C8.14072 100.366 9.38864 87.0688 19.3544 85.4552C24.6008 84.6424 30.0992 85.8072 35.2496 85.048C34.7096 77.3704 36.4896 65.1888 38.1224 57.8752C38.9392 57.6712 39.604 57.2864 39.656 56.3752C38.6472 56.3592 37.584 56.3976 36.5976 56.1696L36.1056 56.0472L11.1445 55.9C9.49224 55.8824 7.85224 55.9552 6.33008 55.2064L6 55.04C-0.636723 51.896 -0.919762 41.3208 6.3336 38.9928L6.62496 38.9064C8.8696 38.2224 12.4502 38.816 14.8357 38.8272L35.4088 38.892Z" fill="#A8E8F9" />
    <path d="M36.1056 55.9448L11.1445 55.9C9.49224 55.8824 7.85224 55.9552 6.33008 55.2064L6 55.04C-0.636723 51.896 -0.919762 41.3208 6.3336 38.9928L6.62496 38.9064C8.8696 38.2224 12.4502 38.816 14.8357 38.8272L35.4088 38.892L63.7352 38.9384C65.5912 38.9464 67.5424 38.9032 69.3488 39.3696L69.6704 39.448C76.6512 41.28 75.4456 54.5696 65.9912 55.7344C59.164 56.5752 43.2176 56.332 36.1056 55.9448Z" fill="#00537A" />
    <path d="M19.3544 85.4552L150.838 85.076C155.442 85.0768 162.667 83.9104 166.82 86.4112L167.168 86.616C173.798 90.6448 173.335 100.474 165.75 102.767L165.354 102.892C163.586 103.403 161.606 103.239 159.777 103.23L127.077 103.18L30.9736 103.221L22.8752 103.2C21.2416 103.183 19.4056 103.266 17.8211 102.877L17.5 102.791C8.14072 100.366 9.38864 87.0688 19.3544 85.4552Z" fill="url(#paint0_linear_0_1)" />
    <path d="M118.34 163.956C143.102 157.206 169.426 175.114 171.848 200.313C171.976 201.646 171.934 203.186 172.234 204.48C172.254 207.746 172.25 210.988 171.643 214.213C165.537 246.676 123.581 261.628 99.52 237.134C93.4976 231.004 86.7896 219.926 86.4008 210.933L85.9688 207.826C85.9064 188.522 99.18 168.852 118.34 163.956Z" fill="url(#paint1_linear_0_1)" />
    <defs>
        <linearGradient id="paint0_linear_0_1" x1="131.368" y1="136.492" x2="51.3892" y2="52.2252" gradientUnits="userSpaceOnUse">
            <stop stop-color="#00305B" />
            <stop offset="1" stop-color="#178BB3" />
        </linearGradient>
        <linearGradient id="paint1_linear_0_1" x1="168.23" y1="223.682" x2="90.234" y2="187.989" gradientUnits="userSpaceOnUse">
            <stop stop-color="#00375B" />
            <stop offset="1" stop-color="#1C84B3" />
        </linearGradient>
    </defs>
</svg>